<svg width="1162" height="202" viewBox="0 0 1162 202" fill="none" xmlns="http://www.w3.org/2000/svg">
<path d="M389.727 139.797C382.255 139.797 375.944 138.659 370.796 136.398C365.664 134.138 361.742 131.076 359.063 127.228C356.384 123.38 355.044 118.94 355.044 113.922H373.169C373.169 115.91 373.75 117.737 374.928 119.437C376.106 121.136 377.897 122.499 380.318 123.525C382.739 124.551 385.87 125.064 389.727 125.064C393.197 125.064 396.118 124.647 398.459 123.797C400.799 122.947 402.574 121.761 403.784 120.238C404.995 118.715 405.592 116.968 405.592 114.996C405.592 112.527 404.462 110.555 402.187 109.112C399.927 107.669 396.247 106.723 391.196 106.307L384.966 105.89C376.735 105.184 370.151 102.763 365.244 98.6273C360.338 94.4911 357.885 88.9922 357.885 82.1467C357.885 77.1287 359.144 72.8162 361.678 69.209C364.211 65.6019 367.746 62.8284 372.281 60.8886C376.816 58.9487 382.174 57.9708 388.372 57.9708C394.569 57.9708 400.444 59.0289 405.092 61.1451C409.74 63.2613 413.307 66.2111 415.808 69.9946C418.31 73.7781 419.552 78.1708 419.552 83.1887H401.412C401.412 81.281 400.912 79.5335 399.943 77.9464C398.959 76.3592 397.506 75.0767 395.586 74.1308C393.665 73.1849 391.261 72.704 388.388 72.704C385.66 72.704 383.385 73.1048 381.529 73.9224C379.673 74.74 378.301 75.8622 377.397 77.3211C376.493 78.764 376.041 80.3832 376.041 82.1467C376.041 84.2629 376.864 86.1386 378.527 87.7738C380.189 89.393 382.9 90.3549 386.693 90.6435L393.036 91.1725C399.072 91.6695 404.414 92.8879 409.014 94.8278C413.629 96.7676 417.228 99.4289 419.843 102.78C422.457 106.146 423.749 110.218 423.749 115.028C423.749 119.837 422.377 124.326 419.617 128.062C416.857 131.813 412.951 134.699 407.884 136.751C402.816 138.803 396.78 139.829 389.743 139.829L389.727 139.797Z" fill="#0164FD"/>
<path d="M491.743 137.681H477.347V123.909C477.024 125.32 476.588 126.635 476.088 127.869C474.506 131.781 472.134 134.731 468.954 136.671C465.775 138.61 461.805 139.572 457.044 139.572H456.253C449.152 139.572 443.648 137.392 439.775 133.015C435.869 128.623 433.932 122.05 433.932 113.28V79.5495H452.186V114.13C452.186 117.24 453.122 119.709 455.026 121.553C456.914 123.396 459.448 124.31 462.612 124.31C465.775 124.31 468.486 123.348 470.487 121.44C472.489 119.533 473.489 116.952 473.489 113.697V79.5495H491.743V137.681Z" fill="#0164FD"/>
<path d="M573.633 95.6454C572.309 92.0703 570.372 88.9602 567.855 86.3149C565.321 83.6536 562.303 81.6016 558.785 80.1106C555.266 78.6197 551.361 77.8822 547.051 77.8822C542.226 77.8822 537.868 78.8922 534.027 80.9122C530.17 82.9162 527.103 85.9302 524.844 89.9221C524.085 91.2367 523.44 92.6795 522.923 94.2186V79.5816H508.414V157.704H526.668V130.45C528.733 133.256 531.332 135.404 534.431 136.895C538.159 138.707 542.387 139.604 547.051 139.604C551.716 139.604 555.621 138.867 559.123 137.376C562.642 135.885 565.628 133.801 568.081 131.06C570.534 128.35 572.406 125.16 573.681 121.521C574.972 117.881 575.602 113.986 575.602 109.801V107.365C575.602 103.116 574.94 99.2205 573.633 95.6454ZM555.428 117.32C554.136 119.869 552.345 121.841 550.053 123.252C547.745 124.679 545.05 125.368 541.951 125.368C539.385 125.368 536.884 124.807 534.463 123.669C532.042 122.531 530.073 120.895 528.508 118.747C526.958 116.599 526.184 114.002 526.184 110.956V107.028C526.184 103.918 526.91 101.24 528.395 98.98C529.863 96.7035 531.8 95.0041 534.221 93.8338C536.642 92.6795 539.208 92.0863 541.935 92.0863C545.034 92.0863 547.729 92.7917 550.037 94.1705C552.345 95.5332 554.136 97.457 555.411 99.8778C556.703 102.331 557.332 105.2 557.332 108.519C557.332 111.837 556.686 114.787 555.411 117.32H555.428Z" fill="#0164FD"/>
<path d="M646.904 107.349C646.904 102.042 645.694 97.1524 643.273 92.6635C640.852 88.1586 637.366 84.5354 632.799 81.7459C628.231 78.9563 622.615 77.5616 615.949 77.5616C610.898 77.5616 606.379 78.3952 602.409 80.0625C598.454 81.7298 595.114 83.9743 592.435 86.7798C589.739 89.6175 587.706 92.8078 586.302 96.3829C584.898 99.9419 584.204 103.677 584.204 107.557V109.673C584.204 113.409 584.898 117.08 586.302 120.639C587.706 124.214 589.755 127.452 592.467 130.354C595.194 133.256 598.584 135.548 602.618 137.248C606.669 138.947 611.333 139.797 616.627 139.797C621.921 139.797 626.44 138.915 630.442 137.2C634.445 135.468 637.786 133.08 640.432 130.033C643.079 127.003 644.838 123.525 645.758 119.661H629.103C628.36 121.424 626.908 122.915 624.794 124.102C622.679 125.32 619.952 125.913 616.627 125.913C612.996 125.913 610.058 125.208 607.783 123.797C605.523 122.386 603.845 120.382 602.812 117.801C602.231 116.374 601.795 114.803 601.537 113.088H646.888V107.365L646.904 107.349ZM601.666 103.437C601.957 101.898 602.376 100.503 602.925 99.2365C604.055 96.6714 605.717 94.7316 607.912 93.417C610.091 92.1184 612.786 91.4451 615.949 91.4451C619.113 91.4451 621.646 92.1184 623.712 93.417C625.794 94.7156 627.344 96.5913 628.36 99.0281C628.909 100.327 629.296 101.802 629.555 103.437H601.65H601.666Z" fill="#0164FD"/>
<path d="M697.21 78.8281V93.5613H692.675C687.688 93.5613 683.83 94.8117 681.103 97.2646C678.375 99.7495 677.02 103.357 677.02 108.086V137.665H658.766V79.5495H673.275V98.7235C673.986 93.2406 675.745 88.8159 678.553 85.4813C682.281 81.0244 687.72 78.796 694.805 78.796H697.177L697.21 78.8281Z" fill="#0164FD"/>
<path d="M760.233 139.797C752.744 139.797 746.45 138.659 741.302 136.398C736.17 134.138 732.248 131.076 729.569 127.228C726.89 123.38 725.55 118.94 725.55 113.922H743.69C743.69 115.91 744.271 117.737 745.45 119.437C746.628 121.136 748.419 122.499 750.84 123.525C753.261 124.551 756.392 125.064 760.249 125.064C763.719 125.064 766.64 124.647 768.98 123.797C771.321 122.947 773.096 121.761 774.306 120.238C775.517 118.715 776.114 116.968 776.114 114.996C776.114 112.527 774.984 110.555 772.708 109.112C770.449 107.669 766.769 106.723 761.718 106.307L755.488 105.89C747.257 105.184 740.672 102.763 735.766 98.6273C730.86 94.4911 728.407 88.9922 728.407 82.1467C728.407 77.1287 729.665 72.8162 732.199 69.209C734.733 65.6019 738.268 62.8284 742.803 60.8886C747.338 58.9487 752.696 57.9708 758.893 57.9708C765.091 57.9708 770.965 59.0289 775.614 61.1451C780.262 63.2613 783.828 66.2111 786.33 69.9946C788.815 73.7781 790.074 78.1708 790.074 83.1887H771.934C771.934 81.281 771.434 79.5335 770.465 77.9464C769.481 76.3592 768.028 75.0767 766.108 74.1308C764.187 73.1849 761.782 72.704 758.91 72.704C756.182 72.704 753.906 73.1048 752.05 73.9224C750.194 74.74 748.823 75.8622 747.919 77.3211C747.015 78.764 746.563 80.3832 746.563 82.1467C746.563 84.2629 747.386 86.1386 749.049 87.7738C750.711 89.393 753.422 90.3549 757.215 90.6435L763.558 91.1725C769.594 91.6695 774.936 92.8879 779.535 94.8278C784.135 96.7676 787.75 99.4289 790.365 102.78C792.979 106.146 794.27 110.218 794.27 115.028C794.27 119.837 792.898 124.326 790.139 128.062C787.379 131.813 783.473 134.699 778.406 136.751C773.338 138.803 767.302 139.829 760.265 139.829L760.233 139.797Z" fill="#0164FD"/>
<path d="M864.621 107.349C864.621 102.042 863.41 97.1524 860.989 92.6635C858.585 88.1586 855.083 84.5354 850.515 81.7459C845.948 78.9563 840.331 77.5616 833.682 77.5616C828.614 77.5616 824.095 78.3952 820.125 80.0625C816.171 81.7298 812.83 83.9743 810.151 86.7798C807.456 89.6175 805.422 92.8078 804.018 96.3829C802.63 99.9419 801.92 103.677 801.92 107.557V109.673C801.92 113.409 802.63 117.08 804.018 120.639C805.422 124.214 807.488 127.452 810.2 130.354C812.927 133.256 816.3 135.548 820.351 137.248C824.386 138.947 829.05 139.797 834.344 139.797C839.637 139.797 844.156 138.915 848.159 137.2C852.161 135.468 855.502 133.08 858.149 130.033C860.796 127.003 862.571 123.525 863.475 119.661H846.819C846.077 121.424 844.641 122.915 842.51 124.102C840.396 125.32 837.685 125.913 834.344 125.913C830.729 125.913 827.775 125.208 825.516 123.797C823.24 122.386 821.578 120.382 820.529 117.801C819.948 116.374 819.512 114.803 819.254 113.088H864.605V107.365L864.621 107.349ZM819.383 103.437C819.689 101.898 820.093 100.503 820.642 99.2365C821.771 96.6714 823.45 94.7316 825.629 93.417C827.824 92.1184 830.503 91.4451 833.682 91.4451C836.862 91.4451 839.363 92.1184 841.445 93.417C843.527 94.7156 845.076 96.5913 846.093 99.0281C846.642 100.327 847.045 101.802 847.287 103.437H819.383Z" fill="#0164FD"/>
<path d="M914.943 78.8281V93.5613H910.407C905.437 93.5613 901.579 94.8117 898.852 97.2646C896.124 99.7495 894.769 103.357 894.769 108.086V137.665H876.515V79.5495H891.008V98.8678C891.702 93.3208 893.461 88.864 896.286 85.4973C900.014 81.0405 905.453 78.8121 912.538 78.8121H914.926L914.943 78.8281Z" fill="#0164FD"/>
<path d="M983.066 79.5656L966.959 137.681H938.167L919.574 79.5656H938.28L951.514 123.573H954.161L965.49 79.5656H983.066Z" fill="#0164FD"/>
<path d="M1051.06 107.349C1051.06 102.042 1049.85 97.1524 1047.44 92.6635C1045.02 88.1586 1041.52 84.5354 1036.95 81.7459C1032.39 78.9563 1026.77 77.5616 1020.12 77.5616C1015.05 77.5616 1010.53 78.3952 1006.56 80.0625C1002.61 81.7298 999.269 83.9743 996.59 86.7798C993.895 89.6175 991.862 92.8078 990.457 96.3829C989.07 99.9419 988.359 103.677 988.359 107.557V109.673C988.359 113.409 989.07 117.08 990.457 120.639C991.862 124.214 993.927 127.452 996.639 130.354C999.366 133.256 1002.74 135.548 1006.79 137.248C1010.83 138.947 1015.49 139.797 1020.78 139.797C1026.08 139.797 1030.61 138.915 1034.61 137.2C1038.6 135.468 1041.94 133.08 1044.59 130.033C1047.23 127.003 1049.01 123.525 1049.93 119.661H1033.27C1032.52 121.424 1031.08 122.915 1028.95 124.102C1026.83 125.32 1024.12 125.913 1020.78 125.913C1017.17 125.913 1014.21 125.208 1011.95 123.797C1009.68 122.386 1008.02 120.382 1006.97 117.801C1006.39 116.374 1005.95 114.803 1005.69 113.088H1051.04V107.365L1051.06 107.349ZM1005.84 103.437C1006.13 101.898 1006.55 100.503 1007.1 99.2365C1008.21 96.6714 1009.89 94.7316 1012.07 93.417C1014.26 92.1184 1016.94 91.4451 1020.12 91.4451C1023.3 91.4451 1025.8 92.1184 1027.88 93.417C1029.97 94.7156 1031.52 96.5913 1032.53 99.0281C1033.08 100.327 1033.48 101.802 1033.74 103.437H1005.84Z" fill="#0164FD"/>
<path d="M1101.38 78.8281V93.5613H1096.85C1091.88 93.5613 1088.02 94.8117 1085.29 97.2646C1082.56 99.7495 1081.21 103.357 1081.21 108.086V137.665H1062.95V79.5495H1077.45V98.8678C1078.14 93.3208 1079.9 88.864 1082.72 85.4973C1086.45 81.0405 1091.89 78.8121 1098.99 78.8121H1101.37L1101.38 78.8281Z" fill="#0164FD"/>
<path d="M1134.37 139.588C1125.53 139.588 1118.62 137.873 1113.63 134.442C1108.64 131.011 1106 126.218 1105.69 120.078H1121.78C1122.09 121.921 1123.27 123.557 1125.35 125.016C1127.43 126.458 1130.54 127.196 1134.69 127.196C1137.87 127.196 1140.49 126.683 1142.57 125.657C1144.65 124.631 1145.68 123.172 1145.68 121.264C1145.68 119.565 1144.88 118.202 1143.25 117.176C1141.62 116.15 1138.81 115.461 1134.81 115.108L1129.93 114.579C1122.44 113.873 1116.84 111.95 1113.1 108.807C1109.35 105.665 1107.48 101.577 1107.48 96.5592C1107.48 92.4551 1108.58 89.0243 1110.77 86.2668C1112.97 83.5094 1116 81.4252 1119.89 80.0144C1123.78 78.6036 1128.22 77.8983 1133.21 77.8983C1141.21 77.8983 1147.68 79.5495 1152.59 82.836C1157.5 86.1225 1160.06 90.884 1160.29 97.1043H1144.09C1143.86 95.2606 1142.81 93.6735 1140.97 92.3268C1139.11 90.9802 1136.45 90.3068 1132.98 90.3068C1130.19 90.3068 1127.96 90.8038 1126.3 91.7978C1124.64 92.7917 1123.81 94.1224 1123.81 95.8217C1123.81 97.5211 1124.53 98.6914 1125.96 99.5251C1127.4 100.375 1129.74 100.968 1132.98 101.321L1137.86 101.737C1145.49 102.523 1151.41 104.495 1155.66 107.669C1159.89 110.843 1162 115.124 1162 120.495C1162 124.39 1160.87 127.757 1158.59 130.627C1156.34 133.496 1153.12 135.693 1148.96 137.248C1144.8 138.803 1139.92 139.588 1134.34 139.588H1134.37Z" fill="#0164FD"/>
<path d="M174.302 28.8571V43.2857H130.727V28.8571H72.626V0H145.252L174.302 28.8571Z" fill="#0164FD"/>
<path d="M43.5756 129.857H101.676V158.714H29.0504L0 129.857V115.429H43.5756V129.857Z" fill="#0164FD"/>
<path d="M174.302 86.5714V129.857L145.252 158.714H116.202V101H29.0504L0 72.1429V28.8571L29.0504 0H58.1008V57.7143H145.252L174.302 86.5714Z" fill="#0164FD"/>
<path d="M290.504 72.1429V86.5714H246.928V72.1429H188.828V43.2857H261.454L290.504 72.1429Z" fill="#0164FD"/>
<path d="M174.302 75.9905V50.7725H148.916L174.302 75.9905Z" fill="#0164FD"/>
<path d="M261.454 101H181.839V132.951L170.429 144.286H232.403V202H261.454L290.504 173.143V129.857L261.454 101Z" fill="#0164FD"/>
<path d="M159.777 173.143V158.714H155.904L148.367 166.201H116.202V173.143L145.252 202H217.878V173.143H159.777Z" fill="#0164FD"/>
</svg>
