<svg width="100" height="43" viewBox="0 0 100 43" fill="none" xmlns="http://www.w3.org/2000/svg">
<g clip-path="url(#clip0_464_332)">
<g clip-path="url(#clip1_464_332)">
<mask id="mask0_464_332" style="mask-type:luminance" maskUnits="userSpaceOnUse" x="0" y="0" width="100" height="43">
<path d="M100 0H0V43H100V0Z" fill="white"/>
</mask>
<g mask="url(#mask0_464_332)">
<path d="M6.4214 42.2757C6.75211 42.2757 7.02222 42.1636 7.23078 41.9386C7.4398 41.7141 7.54438 41.4302 7.54438 41.0863C7.54438 40.7395 7.4398 40.4546 7.23078 40.2315C7.02222 40.0084 6.75211 39.8968 6.4214 39.8968H5.61929V42.2757H6.4214ZM6.4214 39.3516C6.90252 39.3516 7.30311 39.5187 7.6221 39.8524C7.94109 40.1861 8.10076 40.5975 8.10076 41.0863C8.10076 41.5721 7.94109 41.9826 7.6221 42.3178C7.30311 42.6534 6.90264 42.821 6.4214 42.821H5.04297V39.3517L6.4214 39.3516Z" fill="#888888"/>
<path d="M10.0385 41.9755C10.2774 42.2116 10.5724 42.3299 10.9236 42.3299C11.2743 42.3299 11.5693 42.2116 11.8082 41.9755C12.047 41.7394 12.1667 41.4428 12.1667 41.0859C12.1667 40.7291 12.047 40.4325 11.8082 40.1964C11.5693 39.9602 11.2743 39.8419 10.9236 39.8419C10.5724 39.8419 10.2774 39.9603 10.0385 40.1964C9.79953 40.4325 9.68042 40.7291 9.68042 41.0859C9.68042 41.4428 9.79965 41.7393 10.0385 41.9755ZM12.2141 42.3622C11.8615 42.7109 11.4316 42.8847 10.9236 42.8847C10.4156 42.8847 9.98523 42.7109 9.63259 42.3622C9.27995 42.0136 9.10352 41.5881 9.10352 41.0859C9.10352 40.5837 9.27984 40.1582 9.63259 39.8101C9.98523 39.4614 10.4156 39.2871 10.9236 39.2871C11.4316 39.2871 11.8615 39.4614 12.2141 39.8101C12.5667 40.1582 12.7432 40.5837 12.7432 41.0859C12.7432 41.5881 12.5668 42.0136 12.2141 42.3622Z" fill="#888888"/>
<path d="M16.4031 42.2757H17.8314V42.8209H15.8262V39.3516H16.4031V42.2757Z" fill="#888888"/>
<path d="M19.7445 41.587H20.8562L20.3018 40.0208L19.7445 41.587ZM21.2935 42.8209L21.0459 42.1221H19.5536L19.3083 42.8209H18.6816L19.955 39.3516H20.6467L21.9148 42.8209H21.2935Z" fill="#888888"/>
<path d="M24.3218 42.2757C24.653 42.2757 24.9226 42.1636 25.1316 41.9386C25.3402 41.7141 25.4448 41.4302 25.4448 41.0863C25.4448 40.7395 25.3402 40.4546 25.1316 40.2315C24.9226 40.0084 24.653 39.8968 24.3218 39.8968H23.5197V42.2757H24.3218ZM24.3218 39.3516C24.8029 39.3516 25.2035 39.5187 25.5225 39.8524C25.842 40.1861 26.0012 40.5975 26.0012 41.0863C26.0012 41.5721 25.842 41.9826 25.5225 42.3178C25.2035 42.6534 24.803 42.821 24.3218 42.821H22.9434V39.3517L24.3218 39.3516Z" fill="#888888"/>
<path d="M27.9388 41.9755C28.1778 42.2116 28.4727 42.3299 28.8235 42.3299C29.1742 42.3299 29.4692 42.2116 29.7081 41.9755C29.9469 41.7394 30.0666 41.4428 30.0666 41.0859C30.0666 40.7291 29.9469 40.4325 29.7081 40.1964C29.4693 39.9602 29.1742 39.8419 28.8235 39.8419C28.4727 39.8419 28.1778 39.9603 27.9388 40.1964C27.6995 40.4325 27.5803 40.7291 27.5803 41.0859C27.5803 41.4428 27.6996 41.7393 27.9388 41.9755ZM30.1145 42.3622C29.7618 42.7109 29.3315 42.8847 28.8234 42.8847C28.3154 42.8847 27.885 42.7109 27.5324 42.3622C27.1802 42.0136 27.0039 41.5881 27.0039 41.0859C27.0039 40.5837 27.1802 40.1582 27.5324 39.8101C27.885 39.4614 28.3154 39.2871 28.8234 39.2871C29.3313 39.2871 29.7617 39.4614 30.1145 39.8101C30.4666 40.1582 30.6429 40.5837 30.6429 41.0859C30.6429 41.5881 30.4666 42.0136 30.1145 42.3622Z" fill="#888888"/>
<path d="M35.105 42.2757C35.4357 42.2757 35.7058 42.1636 35.9144 41.9386C36.1234 41.7141 36.228 41.4302 36.228 41.0863C36.228 40.7395 36.1234 40.4546 35.9144 40.2315C35.7058 40.0084 35.4357 39.8968 35.105 39.8968H34.3029V42.2757H35.105ZM35.105 39.3516C35.5861 39.3516 35.9862 39.5187 36.3057 39.8524C36.6247 40.1861 36.7844 40.5975 36.7844 41.0863C36.7844 41.5721 36.6246 41.9826 36.3057 42.3178C35.9862 42.6534 35.5862 42.821 35.105 42.821H33.7266V39.3517L35.105 39.3516Z" fill="#888888"/>
<path d="M38.722 41.9755C38.9608 42.2116 39.2559 42.3299 39.6072 42.3299C39.9579 42.3299 40.2529 42.2116 40.4918 41.9755C40.7307 41.7394 40.8503 41.4428 40.8503 41.0859C40.8503 40.7291 40.7306 40.4325 40.4918 40.1964C40.253 39.9602 39.9579 39.8419 39.6072 39.8419C39.2559 39.8419 38.961 39.9603 38.722 40.1964C38.4831 40.4325 38.364 40.7291 38.364 41.0859C38.364 41.4428 38.4832 41.7393 38.722 41.9755ZM40.8977 42.3622C40.545 42.7109 40.1151 42.8847 39.6072 42.8847C39.0992 42.8847 38.6688 42.7109 38.3162 42.3622C37.9635 42.0136 37.7871 41.5881 37.7871 41.0859C37.7871 40.5837 37.9634 40.1582 38.3162 39.8101C38.6688 39.4614 39.0992 39.2871 39.6072 39.2871C40.1151 39.2871 40.545 39.4614 40.8977 39.8101C41.2503 40.1582 41.4267 40.5837 41.4267 41.0859C41.4267 41.5881 41.2504 42.0136 40.8977 42.3622Z" fill="#888888"/>
<path d="M45.8032 41.0964C45.9737 41.0964 46.1139 41.0393 46.2243 40.9254C46.3348 40.8115 46.39 40.6666 46.39 40.4917C46.39 40.3165 46.3348 40.172 46.2243 40.058C46.1139 39.9441 45.9737 39.887 45.8032 39.887H45.0867V41.0963L45.8032 41.0964ZM45.8032 39.3516C46.1339 39.3516 46.4104 39.4607 46.6331 39.679C46.8549 39.8968 46.9663 40.1678 46.9663 40.4918C46.9663 40.8119 46.8549 41.0825 46.6331 41.3022C46.4104 41.522 46.1339 41.6316 45.8032 41.6316H45.0867V42.821H44.5098V39.3517L45.8032 39.3516Z" fill="#888888"/>
<path d="M48.849 41.9755C49.0878 42.2116 49.3829 42.3299 49.7337 42.3299C50.0849 42.3299 50.3799 42.2116 50.6188 41.9755C50.8576 41.7394 50.9773 41.4428 50.9773 41.0859C50.9773 40.7291 50.8576 40.4325 50.6188 40.1964C50.38 39.9602 50.0849 39.8419 49.7337 39.8419C49.3829 39.8419 49.0879 39.9603 48.849 40.1964C48.6096 40.4325 48.4905 40.7291 48.4905 41.0859C48.4905 41.4428 48.6097 41.7393 48.849 41.9755ZM51.0246 42.3622C50.672 42.7109 50.2416 42.8847 49.7337 42.8847C49.2257 42.8847 48.7953 42.7109 48.4426 42.3622C48.0899 42.0136 47.9141 41.5881 47.9141 41.0859C47.9141 40.5837 48.0899 40.1582 48.4426 39.8101C48.7952 39.4614 49.2256 39.2871 49.7337 39.2871C50.2416 39.2871 50.672 39.4614 51.0246 39.8101C51.3773 40.1582 51.5537 40.5837 51.5537 41.0859C51.5537 41.5881 51.3774 42.0136 51.0246 42.3622Z" fill="#888888"/>
<path d="M53.4722 42.8209L52.2539 39.3516H52.886L53.818 42.1279L54.7554 39.3516H55.3822L54.1639 42.8209H53.4722Z" fill="#888888"/>
<path d="M57.0189 41.9755C57.2577 42.2116 57.5528 42.3299 57.9036 42.3299C58.2548 42.3299 58.5493 42.2116 58.7887 41.9755C59.0276 41.7394 59.1467 41.4428 59.1467 41.0859C59.1467 40.7291 59.0275 40.4325 58.7887 40.1964C58.5493 39.9602 58.2548 39.8419 57.9036 39.8419C57.5528 39.8419 57.2578 39.9603 57.0189 40.1964C56.78 40.4325 56.6604 40.7291 56.6604 41.0859C56.6604 41.4428 56.7801 41.7393 57.0189 41.9755ZM59.1945 42.3622C58.8419 42.7109 58.4115 42.8847 57.9036 42.8847C57.3956 42.8847 56.9652 42.7109 56.6131 42.3622C56.2604 42.0136 56.084 41.5881 56.084 41.0859C56.084 40.5837 56.2603 40.1582 56.6131 39.8101C56.9652 39.4614 57.3956 39.2871 57.9036 39.2871C58.4115 39.2871 58.8419 39.4614 59.1945 39.8101C59.5472 40.1582 59.7236 40.5837 59.7236 41.0859C59.7236 41.5881 59.5473 42.0136 59.1945 42.3622Z" fill="#888888"/>
<path d="M64.3107 42.2859C64.444 42.2859 64.5569 42.2386 64.6487 42.1444C64.7405 42.0502 64.7869 41.9353 64.7869 41.8C64.7869 41.6643 64.7405 41.5499 64.6487 41.4557C64.5569 41.3616 64.444 41.3141 64.3107 41.3141H63.3826V42.2858L64.3107 42.2859ZM64.2003 39.8872H63.3826V40.799H64.2003C64.3273 40.799 64.4343 40.755 64.5212 40.6676C64.6077 40.5803 64.6511 40.472 64.6511 40.3431C64.6511 40.2141 64.6076 40.106 64.5212 40.0186C64.4342 39.9307 64.3273 39.8872 64.2003 39.8872ZM64.8719 41.0221C65.0259 41.1012 65.146 41.2104 65.2329 41.349C65.3199 41.4877 65.3633 41.6479 65.3633 41.83C65.3633 42.114 65.2611 42.3501 65.0575 42.5384C64.8533 42.7268 64.6046 42.8209 64.3106 42.8209H62.8066V39.3516H64.2002C64.4874 39.3516 64.7307 39.4434 64.9295 39.6268C65.1283 39.8103 65.228 40.0388 65.228 40.3131C65.228 40.614 65.1094 40.8501 64.8719 41.0221Z" fill="#888888"/>
<path d="M67.0921 39.887V41.0465H67.9195C68.0728 41.0465 68.2033 40.9905 68.3102 40.878C68.4173 40.7659 68.471 40.6288 68.471 40.4665C68.471 40.3047 68.4173 40.1676 68.3102 40.0556C68.2033 39.943 68.0728 39.887 67.9195 39.887H67.0921ZM68.516 42.8209L67.7745 41.5571H67.0921V42.8209H66.5156V39.3516H67.9195C68.2336 39.3516 68.4998 39.4597 68.7187 39.6761C68.9375 39.8929 69.0474 40.1562 69.0474 40.4667C69.0474 40.6884 68.9829 40.8906 68.8544 41.0742C68.7255 41.2572 68.5575 41.3905 68.3503 41.4732L69.1475 42.821L68.516 42.8209Z" fill="#888888"/>
<path d="M70.9771 41.587H72.0888L71.5344 40.0208L70.9771 41.587ZM72.5261 42.8209L72.2784 42.1221H70.7861L70.5409 42.8209H69.9141L71.1875 39.3516H71.8792L73.1473 42.8209H72.5261Z" fill="#888888"/>
<path d="M75.254 42.8847C74.9165 42.8847 74.6297 42.8089 74.3943 42.6568C74.1583 42.5052 73.9937 42.297 73.9004 42.0324L74.3966 41.7451C74.5369 42.1353 74.8279 42.3299 75.2691 42.3299C75.486 42.3299 75.6492 42.288 75.7576 42.2039C75.866 42.1199 75.9208 42.0102 75.9208 41.875C75.9208 41.7335 75.8622 41.6258 75.7449 41.5514C75.6277 41.477 75.4206 41.3958 75.1227 41.3066C74.9595 41.2467 74.8252 41.1974 74.7202 41.1588C74.6147 41.1202 74.5049 41.0623 74.3895 40.9845C74.2738 40.9067 74.1877 40.8102 74.1311 40.6943C74.0739 40.5789 74.0461 40.4436 74.0461 40.2882C74.0461 39.981 74.156 39.7372 74.3768 39.557C74.5971 39.3769 74.8629 39.2871 75.174 39.2871C75.4544 39.2871 75.7002 39.3547 75.9106 39.4904C76.1211 39.6257 76.2833 39.8125 76.3971 40.0501L75.9106 40.3278C75.7636 40.0042 75.5179 39.8419 75.174 39.8419C75.0065 39.8419 74.8731 39.8811 74.773 39.9583C74.6724 40.0361 74.6226 40.1413 74.6226 40.2732C74.6226 40.3993 74.6738 40.4992 74.7759 40.5717C74.8785 40.6446 75.0641 40.7214 75.3332 40.8025C75.4646 40.8513 75.5603 40.887 75.6214 40.9098C75.6825 40.9325 75.7699 40.9648 75.8837 41.0073C75.9976 41.0499 76.083 41.0947 76.1392 41.1416C76.1954 41.1884 76.256 41.2468 76.3209 41.3168C76.3854 41.3873 76.4308 41.4675 76.4571 41.5578C76.484 41.6481 76.4972 41.7504 76.4972 41.864C76.4972 42.1778 76.3829 42.4266 76.1539 42.6102C75.9248 42.7936 75.6248 42.8847 75.254 42.8847Z" fill="#888888"/>
<path d="M78.1956 39.3516H77.6191V42.8209H78.1956V39.3516Z" fill="#888888"/>
<path d="M80.1251 42.2757H81.554V42.8209H79.5488V39.3516H80.1252L80.1251 42.2757Z" fill="#888888"/>
<path d="M83.2093 42.2757H84.7635V42.8209H82.6328V39.3516H84.7381V39.8968H83.2091V40.7988H84.613V41.3393H83.2091L83.2093 42.2757Z" fill="#888888"/>
<path d="M86.5178 39.3516H85.9414V42.8209H86.5178V39.3516Z" fill="#888888"/>
<path d="M88.4475 39.887V41.0465H89.275C89.4283 41.0465 89.5588 40.9905 89.6657 40.878C89.7727 40.7659 89.8264 40.6288 89.8264 40.4665C89.8264 40.3047 89.7727 40.1676 89.6657 40.0556C89.5588 39.943 89.4283 39.887 89.275 39.887H88.4475ZM89.8714 42.8209L89.1299 41.5571H88.4475V42.8209H87.8711V39.3516H89.275C89.589 39.3516 89.8553 39.4597 90.0746 39.6761C90.2935 39.8929 90.4029 40.1562 90.4029 40.4667C90.4029 40.6884 90.3384 40.8906 90.2099 41.0742C90.0809 41.2572 89.9129 41.3905 89.7058 41.4732L90.503 42.821L89.8714 42.8209Z" fill="#888888"/>
<path d="M92.3296 41.9755C92.5684 42.2116 92.8634 42.3299 93.2142 42.3299C93.5654 42.3299 93.8599 42.2116 94.0993 41.9755C94.3381 41.7394 94.4573 41.4428 94.4573 41.0859C94.4573 40.7291 94.3381 40.4325 94.0993 40.1964C93.8599 39.9602 93.5654 39.8419 93.2142 39.8419C92.8634 39.8419 92.5685 39.9603 92.3296 40.1964C92.0908 40.4325 91.9711 40.7291 91.9711 41.0859C91.9711 41.4428 92.0908 41.7393 92.3296 41.9755ZM94.5052 42.3622C94.1525 42.7109 93.7222 42.8847 93.2141 42.8847C92.7061 42.8847 92.2758 42.7109 91.9236 42.3622C91.5709 42.0136 91.3945 41.5881 91.3945 41.0859C91.3945 40.5837 91.5708 40.1582 91.9236 39.8101C92.2758 39.4614 92.7061 39.2871 93.2141 39.2871C93.7221 39.2871 94.1524 39.4614 94.5052 39.8101C94.8578 40.1582 95.0341 40.5837 95.0341 41.0859C95.0341 41.5881 94.8578 42.0136 94.5052 42.3622Z" fill="#888888"/>
<path d="M26.4526 2.08347V2.4408C26.4526 3.86977 25.4845 4.80035 24.2022 4.80035C22.8384 4.80035 21.7676 3.74853 21.7676 2.40696C21.7676 1.06538 22.8452 0 24.1952 0C25.0476 0 25.8316 0.431739 26.2615 1.13967L25.1976 1.76648C24.9929 1.40231 24.6182 1.19322 24.1815 1.19322C23.4996 1.19322 23.0155 1.71235 23.0155 2.41356C23.0155 3.10122 23.4996 3.60018 24.202 3.60018C24.6929 3.60018 25.0065 3.35725 25.116 3.06077H23.8679V2.08336L26.4526 2.08347Z" fill="#888888"/>
<path d="M31.51 2.40012C31.51 1.75303 31.0397 1.26717 30.4324 1.26717C29.812 1.26717 29.3349 1.75303 29.3349 2.40012C29.3349 3.0472 29.8122 3.53261 30.4324 3.53261C31.0396 3.53261 31.51 3.04732 31.51 2.40012ZM27.998 2.40012C27.998 1.06526 29.0756 0 30.4326 0C31.7758 0 32.8534 1.06538 32.8534 2.40012C32.8534 3.73497 31.7758 4.80024 30.4326 4.80024C29.0756 4.80024 27.998 3.73486 27.998 2.40012Z" fill="#888888"/>
<path d="M38.7148 0.107422L36.9007 4.69185H35.6526L33.8594 0.107422H35.2027L36.2803 2.93256L37.371 0.107422H38.7148Z" fill="#888888"/>
<path d="M41.4243 1.22681V1.90774H42.7881V2.89199H41.4243V3.57292H43.4906V4.69185H40.1699V0.107422H43.4906V1.22681H41.4243Z" fill="#888888"/>
<path d="M46.4824 2.0627H47.3553C47.6484 2.0627 47.8326 1.86034 47.8326 1.63827C47.8326 1.4089 47.6553 1.20653 47.3553 1.20653H46.4824V2.0627ZM47.0075 3.1078H46.4824V4.69185H45.248V0.107422H47.4917C48.3982 0.107422 49.0944 0.748249 49.0944 1.5977C49.0944 2.18394 48.7735 2.66934 48.2825 2.92572L49.3122 4.69173H47.9279L47.0075 3.1078Z" fill="#888888"/>
<path d="M55.0154 0.107422V4.69185H53.9584L52.0899 2.27863V4.69185H50.8555V0.107422H51.9057L53.781 2.52782V0.107422H55.0154Z" fill="#888888"/>
<path d="M60.1565 2.40012C60.1565 1.75303 59.6861 1.26717 59.0789 1.26717C58.4585 1.26717 57.9808 1.75303 57.9808 2.40012C57.9808 3.0472 58.4585 3.53261 59.0789 3.53261C59.6861 3.53261 60.1565 3.04732 60.1565 2.40012ZM56.6445 2.40012C56.6445 1.06526 57.7221 0 59.079 0C60.4223 0 61.4999 1.06538 61.4999 2.40012C61.4999 3.73497 60.4223 4.80024 59.079 4.80024C57.7221 4.80024 56.6445 3.73486 56.6445 2.40012Z" fill="#888888"/>
<path d="M70.5023 2.39987C70.5023 1.7325 69.9977 1.30076 69.261 1.30076H68.6954V3.49863H69.261C69.9976 3.49863 70.5023 3.06724 70.5023 2.39987ZM71.7982 2.39987C71.7982 3.71444 70.7343 4.69185 69.3226 4.69185H67.4336V0.107422H69.3226C70.7343 0.107422 71.7982 1.08541 71.7982 2.39987Z" fill="#888888"/>
<path d="M76.4437 2.40012C76.4437 1.75303 75.9734 1.26717 75.3661 1.26717C74.7457 1.26717 74.2684 1.75303 74.2684 2.40012C74.2684 3.0472 74.7457 3.53261 75.3661 3.53261C75.9732 3.53261 76.4437 3.04732 76.4437 2.40012ZM72.9316 2.40012C72.9316 1.06526 74.0092 0 75.3662 0C76.7095 0 77.7871 1.06538 77.7871 2.40012C77.7871 3.73497 76.7095 4.80024 75.3662 4.80024C74.0092 4.80024 72.9316 3.73486 72.9316 2.40012Z" fill="#888888"/>
<path d="M27.9009 26.1401H18.6117V35.3129H29.5692L31.6545 31.8459L27.9009 26.1401ZM44.2804 26.8968C41.9822 26.8968 39.8114 27.7757 38.1672 29.3718C36.5361 30.9553 35.6086 33.0638 35.5524 35.3128H53.008C52.9523 33.0638 52.0246 30.9553 50.3937 29.3718C48.7495 27.7757 46.5782 26.8968 44.2804 26.8968ZM35.2081 18.602C35.2081 14.6825 31.9832 11.4943 28.0188 11.4943H18.7954L28.1365 25.7088C32.0383 25.6466 35.2081 22.4635 35.2081 18.602ZM32.1679 31.8348L34.4544 35.3128H35.1182C35.1739 32.9484 36.1469 30.7317 37.8605 29.067C39.5868 27.3902 41.8665 26.4664 44.2804 26.4664C46.694 26.4664 48.9742 27.3902 50.7004 29.067C52.4139 30.7317 53.387 32.9484 53.4427 35.3128H54.4055V28.5305L44.2804 11.7L32.1679 31.8348ZM31.9192 32.2482L30.0753 35.3129H33.9356L31.9192 32.2482ZM11.0512 21.2238H8.48089V35.3128H11.0512C14.9805 35.3128 18.177 32.1525 18.177 28.2683C18.177 24.3842 14.9804 21.2238 11.0512 21.2238ZM0 35.3128H8.0456V21.2238H0V35.3128ZM0 20.7935H8.0456V11.4943H0V20.7935ZM14.9297 16.1438C14.9297 13.5799 12.8199 11.4941 10.2266 11.4941H8.48077V20.7934H10.2266C12.8199 20.7934 14.9297 18.7077 14.9297 16.1438ZM54.8408 35.3128H58.4853L54.8408 29.254V35.3128ZM73.4642 35.3128H81.5094V11.4943H73.4642V35.3128ZM83.3754 35.3128H91.421V27.5985H83.3754V35.3128ZM91.8563 27.5985V35.3128H99.9019V27.5985H91.8563ZM71.5984 11.4943H62.8582V19.8818H71.5984V11.4943ZM83.3754 27.1682H91.421V11.4943H83.3754V27.1682ZM18.6118 12.0052V25.7098H27.6183L18.6118 12.0052ZM60.0719 21.841H62.4229V11.4943H60.0733C57.1878 11.4943 54.8408 13.8152 54.8408 16.6679C54.8408 19.5196 57.1875 21.8401 60.0719 21.841ZM65.4421 20.312H62.858V35.3128H65.4421C69.6253 35.3128 73.0291 31.9482 73.0291 27.8124C73.0291 23.6766 69.6254 20.312 65.4421 20.312ZM54.8408 28.4122L58.9918 35.3128H62.4229V22.2713H54.8408V28.4122Z" fill="#888888"/>
</g>
</g>
</g>
<defs>
<clipPath id="clip0_464_332">
<rect width="100" height="43" fill="white"/>
</clipPath>
<clipPath id="clip1_464_332">
<rect width="100" height="43" fill="white"/>
</clipPath>
</defs>
</svg>
