<svg width="100" height="30" viewBox="0 0 100 30" fill="none" xmlns="http://www.w3.org/2000/svg">
<g clip-path="url(#clip0_464_411)">
<g clip-path="url(#clip1_464_411)">
<path d="M21.9 4.515L16.452 10.18C16.2 10.452 15.976 10.542 15.779 10.542C15.441 10.542 15.217 10.301 15.105 9.905L13.588 4.329C13.56 4.209 13.531 4.088 13.531 3.964C13.531 3.541 13.783 3.237 14.233 3.237H21.645C21.955 3.237 22.236 3.479 22.236 3.844C22.236 4.026 22.124 4.268 21.9 4.512M25.071 0.303C24.369 0.213 18.726 0 16.031 0C10.557 0 6.486 0.0310001 3.312 3.605C0 7.333 0 12.241 0 20.177V24.571C0 25.237 0.338 25.692 1.01 25.692C1.402 25.692 1.712 25.571 2.274 24.964L14.122 12.603C14.319 12.39 14.571 12.269 14.767 12.269C15.16 12.269 15.498 12.603 15.498 13.086V24.782C15.498 25.327 15.807 25.692 16.283 25.692H16.648C18.079 25.692 20.859 25.054 23.188 22.39C26.024 19.178 26.164 15.663 26.164 8.998V1.516C26.164 0.848 25.743 0.396 25.069 0.303M34.912 12.271H33.021C32.812 12.271 32.707 12.384 32.707 12.61V25.383C32.707 25.609 32.812 25.722 33.021 25.722H34.912C35.121 25.722 35.226 25.609 35.226 25.383V12.61C35.226 12.384 35.121 12.271 34.912 12.271ZM40.872 23.826C40.479 23.826 40.11 23.77 39.769 23.657V21.503C39.769 18.954 40.872 17.878 42.157 17.878C43.443 17.878 44.048 18.813 44.048 20.342C44.048 22.58 42.631 23.826 40.872 23.826ZM42.736 15.668C41.136 15.668 40.007 16.562 39.507 17.78L39.167 16.292C39.088 15.953 38.983 15.868 38.774 15.868H37.698C37.488 15.868 37.383 15.981 37.383 16.208V29.463C37.385 29.634 37.513 29.773 37.672 29.774H39.483C39.642 29.773 39.77 29.634 39.771 29.463V25.81C40.138 25.895 40.612 25.951 40.926 25.951C44.338 25.951 46.543 23.628 46.543 20.286C46.543 17.511 45.021 15.668 42.738 15.668M75.066 15.668C73.623 15.668 72.443 16.377 71.838 17.652L71.524 16.293C71.445 15.953 71.34 15.869 71.13 15.869H70.054C69.845 15.869 69.74 15.982 69.74 16.208V25.383C69.74 25.609 69.845 25.722 70.054 25.722H71.84C72.05 25.722 72.154 25.609 72.154 25.383V20.681C72.154 18.898 73.204 17.934 74.438 17.934C75.41 17.934 76.116 18.615 76.116 19.774V25.383C76.116 25.609 76.221 25.722 76.43 25.722H78.216C78.426 25.722 78.531 25.609 78.531 25.383V19.633C78.531 17.169 77.271 15.668 75.066 15.668ZM97.611 19.89C97.611 22.439 96.64 23.741 95.223 23.741C94.042 23.741 93.229 22.863 93.229 21.277C93.229 19.237 94.593 17.793 96.483 17.793C96.85 17.793 97.271 17.85 97.611 17.963V19.89ZM99.738 16.349C99.133 16.066 97.873 15.668 96.535 15.668C92.835 15.668 90.736 18.245 90.736 21.334C90.736 24.109 92.414 25.951 94.671 25.951C96.214 25.951 97.452 25.1 97.948 23.726L98.214 25.016C98.345 25.637 98.424 25.725 98.793 25.725H99.685C99.895 25.725 100 25.612 100 25.386V16.804C100 16.606 99.921 16.436 99.738 16.352M84.514 23.458C83.307 23.458 82.492 22.495 82.492 21.022C82.492 19.152 83.831 17.793 85.747 17.793C86.114 17.793 86.535 17.849 86.876 17.962V19.689C86.876 22.21 85.878 23.456 84.514 23.456M89.002 16.346C88.557 16.092 87.086 15.665 85.616 15.665C82.047 15.665 79.999 18.073 79.999 21.102C79.999 24.132 81.916 25.465 83.961 25.465C85.331 25.465 86.345 24.815 86.847 23.849V24.928C86.847 26.796 85.771 27.675 84.014 27.675C82.964 27.675 82.071 27.364 81.154 26.996C80.971 26.912 80.735 26.94 80.735 27.222V28.61C80.735 28.864 80.814 29.091 81.128 29.263C81.995 29.743 83.202 30 84.357 30C87.899 30 89.264 27.734 89.264 24.818V16.804C89.264 16.634 89.185 16.464 89.002 16.351M65.567 19.89C65.567 22.439 64.596 23.741 63.179 23.741C61.998 23.741 61.184 22.863 61.184 21.277C61.184 19.237 62.548 17.793 64.438 17.793C64.805 17.793 65.227 17.85 65.567 17.963V19.89ZM67.693 16.349C67.088 16.066 65.829 15.668 64.491 15.668C60.791 15.668 58.691 18.245 58.691 21.334C58.691 24.109 60.369 25.951 62.627 25.951C64.169 25.951 65.407 25.1 65.903 23.726L66.169 25.016C66.3 25.637 66.379 25.725 66.745 25.725H67.691C67.874 25.725 67.953 25.584 67.953 25.442V16.804C67.953 16.606 67.874 16.436 67.691 16.352M58.033 15.781C57.85 15.696 57.481 15.668 57.193 15.668C56.038 15.668 54.726 16.434 54.307 17.793L53.967 16.293C53.888 15.953 53.783 15.869 53.574 15.869H52.498C52.288 15.869 52.183 15.982 52.183 16.208V25.383C52.183 25.609 52.288 25.722 52.498 25.722H54.283C54.493 25.722 54.598 25.609 54.598 25.383V20.938C54.598 19.039 55.386 18.107 56.881 18.107C57.143 18.107 57.379 18.135 57.748 18.191C58.114 18.248 58.271 18.22 58.271 17.88V16.267C58.271 16.041 58.271 15.899 58.036 15.786M50.135 15.869H48.349C48.14 15.869 48.035 15.982 48.035 16.208V25.384C48.035 25.609 48.14 25.723 48.349 25.723H50.135C50.345 25.723 50.449 25.61 50.449 25.384V16.208C50.449 15.982 50.345 15.869 50.135 15.869Z" fill="#888888"/>
</g>
</g>
<defs>
<clipPath id="clip0_464_411">
<rect width="100" height="30" fill="white"/>
</clipPath>
<clipPath id="clip1_464_411">
<rect width="100" height="30" fill="white"/>
</clipPath>
</defs>
</svg>
