<svg width="100" height="30" viewBox="0 0 100 30" fill="none" xmlns="http://www.w3.org/2000/svg">
<path d="M35.1118 0.736328H28.3251C26.8375 0.736328 25.6738 1.40361 24.9617 2.66516L21.8076 8.24046L17.5598 0.736328H8.50781L17.0995 14.5009L8.57108 28.8172H17.5565L21.8175 21.3558L26.1384 28.8172H35.0507L26.5201 14.5009L35.1118 0.736328Z" fill="#888888"/>
<path d="M1.13875 1.90879C0.773746 2.27905 0.48483 2.72121 0.289219 3.20891C0.093608 3.69662 -0.00469314 4.21989 0.000172162 4.74753V28.8169H7.72267V0.732633H3.89796C3.38514 0.727163 2.87652 0.828193 2.40245 1.0297C1.92838 1.2312 1.4986 1.52904 1.13875 1.90542" fill="#888888"/>
<path d="M48.5765 18.3682C48.2693 19.6882 47.7795 20.6206 47.1206 21.1485C46.3659 21.7518 45.3901 22.0472 44.138 22.0472C42.3744 22.0472 41.1367 21.4855 40.2434 20.2948C39.287 19.013 38.8017 17.1595 38.8017 14.7824C38.8017 12.2369 39.2783 10.3451 40.2195 9.15769C41.1345 8.00513 42.4617 7.44346 44.2787 7.44346C45.6418 7.44346 46.6278 7.70409 47.2092 8.22083C47.5363 8.51179 47.8342 8.93077 48.1155 9.49922C48.857 10.9978 50.1045 11.7897 51.7231 11.7897H56.2371L56.1172 10.3091C55.8477 7.08846 54.6829 4.54851 52.6553 2.76125C50.5757 0.927905 47.7575 0 44.2787 0C40.0722 0 36.7601 1.31322 34.4349 3.90372C32.2079 6.38299 31.0781 10.0429 31.0781 14.779C31.0781 19.3848 32.1774 22.9864 34.3499 25.487C36.6052 28.0887 39.8028 29.4076 43.8553 29.4076C47.4032 29.4076 50.2901 28.4842 52.4287 26.6609C54.61 24.8062 55.8511 22.1607 56.1214 18.7973L56.2371 17.3291H48.821L48.5765 18.3682Z" fill="#888888"/>
<path d="M95.9067 28.8927C94.6897 28.9633 93.469 28.9453 92.2542 28.8387C90.9457 28.7354 90.2914 27.8738 90.2914 26.2617V10.7985H92.13C92.3508 10.7987 92.569 10.8454 92.7711 10.9358C92.9736 11.0263 93.1558 11.1585 93.3067 11.3243C93.4711 11.4873 93.6008 11.6832 93.6889 11.9C93.7766 12.1168 93.8203 12.3498 93.8173 12.5847V14.9505H95.9088V15.6863C95.916 15.9271 95.8736 16.1667 95.7847 16.3895C95.6961 16.6122 95.5626 16.8132 95.3931 16.9793C95.2308 17.1414 95.0393 17.2688 94.8292 17.3544C94.619 17.44 94.3944 17.4821 94.1686 17.4781H93.8118V25.2653C93.8118 25.863 94.1508 26.164 94.8313 26.164H95.9033L95.9067 28.8927ZM83.5537 28.8927V14.4798C83.5537 13.2183 83.8753 12.2713 84.5253 11.6377C85.1351 11.0412 86.1414 10.739 87.5355 10.739C87.8097 10.7343 88.0838 10.7523 88.3554 10.7929C88.6453 10.7885 88.9351 10.805 89.2224 10.8423V13.7373H88.3042C87.8287 13.7373 87.4851 13.8092 87.2847 13.9484C87.1143 14.0878 87.027 14.3709 87.027 14.7876V15.7346H89.2236V16.521C89.2296 16.7533 89.1906 16.9845 89.1092 17.2012C89.0275 17.4178 88.9046 17.6156 88.7482 17.7828C88.5914 17.95 88.4042 18.0834 88.1965 18.1752C87.9893 18.267 87.7664 18.3153 87.541 18.3173H87.0317V28.8927H83.5537ZM74.516 18.3712C73.8012 19.1785 73.4787 20.3798 73.5486 21.975C73.6139 23.569 73.9063 24.6823 74.4156 25.3147C74.6207 25.5978 74.9783 25.8315 75.4876 26.0236C75.9868 26.2164 76.5334 26.2354 77.044 26.0775C77.5707 25.9213 78.0419 25.5259 78.4508 24.8935C78.8597 24.261 79.0787 23.2455 79.1139 21.8446C79.1139 20.5797 78.9173 19.6327 78.5249 19.0036C78.1321 18.3746 77.6838 17.9705 77.18 17.7915C76.6838 17.6176 76.1474 17.6082 75.6457 17.7645C75.1368 17.9263 74.7618 18.1285 74.5211 18.3712H74.516ZM72.0673 27.6311C71.352 26.999 70.8406 26.1475 70.533 25.0766C70.2258 23.9921 70.0719 22.8676 70.0762 21.7379C70.0766 20.777 70.2054 19.8207 70.4588 18.8958C70.6762 18.0227 71.0868 17.2133 71.6584 16.5311C72.5431 15.4826 73.6838 14.8599 75.0796 14.6629C76.4758 14.466 77.7364 14.5783 78.8618 14.9999C80.1224 15.4979 81.1465 16.4789 81.7203 17.7376C82.302 18.8917 82.5927 20.2416 82.5927 21.7873C82.5927 22.9107 82.4736 23.8742 82.2351 24.6778C82.0321 25.4074 81.7224 26.1007 81.3156 26.7335C80.5012 27.8872 79.4618 28.6051 78.1999 28.8882C77.0923 29.2012 75.9266 29.229 74.8058 28.969C73.6643 28.7039 72.7554 28.2565 72.0796 27.6266L72.0673 27.6311ZM57.377 24.2565H60.8495C60.88 24.9564 61.1376 25.4922 61.613 25.8371C62.1266 26.1865 62.8063 26.3617 63.6567 26.3617C64.2054 26.3778 64.7495 26.2515 65.238 25.9944C65.6482 25.7472 65.852 25.4147 65.852 24.9923C65.852 24.3644 65.1376 23.8892 63.7092 23.5746C63.2414 23.5028 62.78 23.3962 62.3275 23.2556C60.5236 22.8062 59.3147 22.2633 58.7012 21.6267C58.0215 20.9931 57.6813 20.154 57.6813 19.0991C57.6694 18.4674 57.7965 17.8411 58.0529 17.2673C58.3097 16.6935 58.6893 16.1872 59.1635 15.7863C60.188 14.9782 61.5156 14.5742 63.1465 14.5742C64.9198 14.5742 66.333 14.9767 67.3868 15.7818C68.3753 16.6618 68.9025 17.802 68.9681 19.2025H66.7597C66.1147 19.2025 65.6224 18.9029 65.283 18.3038C65.1431 18.1645 65.008 18.0252 64.8728 17.8814C64.4643 17.5683 63.902 17.4114 63.1868 17.4107C62.5071 17.4107 61.9969 17.5141 61.6524 17.7241C61.5029 17.8279 61.3821 17.9698 61.302 18.136C61.2219 18.3022 61.1851 18.487 61.1952 18.6722C61.1952 19.2332 62.0796 19.7072 63.8486 20.0944C64.0537 20.1618 64.2325 20.2157 64.3851 20.2517C64.5283 20.2866 64.6745 20.3047 64.8215 20.3056C66.5567 20.755 67.766 21.2886 68.4436 21.8784C69.0927 22.5119 69.4164 23.3544 69.4152 24.4059C69.4152 25.9509 68.8698 27.1436 67.7791 27.9839C66.7613 28.756 65.2304 29.142 63.1868 29.142C61.2431 29.142 59.7965 28.738 58.8461 27.9299C57.8575 27.1256 57.3635 25.9509 57.3652 24.4059L57.377 24.2565Z" fill="#888888"/>
<path d="M98.4798 10.8887C98.1794 10.8887 97.8859 10.9805 97.6359 11.1525C97.3863 11.3244 97.1914 11.5688 97.0765 11.8548C96.9617 12.1407 96.9315 12.4553 96.99 12.7589C97.0485 13.0624 97.1935 13.3413 97.4058 13.5601C97.6185 13.779 97.8888 13.928 98.1838 13.9884C98.4782 14.0488 98.7838 14.0178 99.0613 13.8993C99.3393 13.7809 99.5765 13.5803 99.7431 13.323C99.91 13.0657 99.9991 12.7631 99.9991 12.4536C99.9986 12.0388 99.8384 11.6411 99.5537 11.3477C99.2689 11.0544 98.8828 10.8894 98.4798 10.8887ZM98.4798 13.6725C98.2459 13.6725 98.0172 13.601 97.8227 13.467C97.6282 13.3331 97.4766 13.1428 97.3867 12.92C97.2973 12.6973 97.2739 12.4523 97.3192 12.2158C97.365 11.9794 97.4778 11.7622 97.6435 11.5918C97.8088 11.4213 98.0197 11.3052 98.2493 11.2582C98.4786 11.2111 98.7168 11.2353 98.9329 11.3275C99.149 11.4198 99.3337 11.576 99.4637 11.7765C99.5938 11.9769 99.6633 12.2125 99.6633 12.4536C99.6629 12.7767 99.5379 13.0864 99.3163 13.3148C99.0943 13.5432 98.7938 13.6718 98.4798 13.6725Z" fill="#888888"/>
<path d="M99.1514 12.2321C99.1539 12.1627 99.1425 12.0935 99.1171 12.0291C99.0917 11.9647 99.0535 11.9066 99.0044 11.8586C98.9556 11.8107 98.8976 11.7738 98.834 11.7507C98.7705 11.7275 98.7031 11.7186 98.6357 11.7243H97.8984V13.2499H98.2802V12.7376H98.4764L98.7251 13.2499H99.1616L98.8595 12.6882C98.9493 12.6545 99.0268 12.5919 99.0802 12.5096C99.1332 12.4273 99.1595 12.3297 99.1548 12.231L99.1514 12.2321ZM98.5823 12.3928H98.2789V12.0658H98.5823C98.6052 12.0625 98.6281 12.0642 98.6501 12.0708C98.6722 12.0775 98.6925 12.089 98.7099 12.1045C98.7272 12.12 98.7412 12.1391 98.751 12.1607C98.7603 12.1822 98.7654 12.2056 98.7654 12.2293C98.7654 12.253 98.7603 12.2764 98.751 12.2979C98.7412 12.3194 98.7272 12.3386 98.7099 12.3541C98.6925 12.3696 98.6722 12.3811 98.6501 12.3877C98.6281 12.3944 98.6052 12.3961 98.5823 12.3928Z" fill="#888888"/>
</svg>
