<svg width="152" height="30" viewBox="0 0 152 30" fill="none" xmlns="http://www.w3.org/2000/svg">
<g clip-path="url(#clip0_464_380)">
<g clip-path="url(#clip1_464_380)">
<mask id="mask0_464_380" style="mask-type:luminance" maskUnits="userSpaceOnUse" x="0" y="0" width="152" height="30">
<path d="M152 0H0V30H152V0Z" fill="white"/>
</mask>
<g mask="url(#mask0_464_380)">
<path d="M8.29914 13.1641H10.7718C11.2596 13.1641 11.7036 13.4809 11.7036 14.0096C11.7036 14.7176 11.1459 15.2128 10.3717 15.2128H7.73047L8.29914 13.1641Z" fill="#888888"/>
<path d="M20.4462 13.1758H22.7798C23.8841 13.1758 23.928 13.9394 23.928 14.1554C23.928 14.662 23.4877 15.6565 22.1451 15.6565H19.7676C19.7676 15.6565 20.4351 13.239 20.4462 13.1758Z" fill="#888888"/>
<path d="M7.13352 17.3398H9.26868C10.3144 17.3398 10.373 17.6267 10.5162 17.8724C10.6592 18.1184 10.5934 18.6363 10.4976 18.815C10.3695 19.0385 10.1603 19.7313 8.82488 19.7313H6.45117C6.45117 19.7313 7.13352 17.3436 7.13352 17.3398Z" fill="#888888"/>
<path d="M29.6954 10.9495V29.9512H0.078125V10.9495H5.77545L2.61689 22.013H9.08096C11.8804 22.013 12.3684 21.3499 12.937 20.8655C13.6966 20.2211 14.1036 18.6865 13.7623 17.6212C13.5203 16.8648 12.8159 16.4067 12.7389 16.3842C13.6156 15.9747 14.1257 15.0732 14.188 14.9391C14.511 14.2574 14.7642 13.0169 13.9569 12.0224C13.2855 11.1952 11.9794 10.9644 11.0329 10.9492H17.9557L14.786 22.0352H17.9925L19.1628 17.8296H20.9971C22.3291 17.8296 22.208 18.6716 22.241 19.0328L22.3437 22.1209H25.3229C25.3229 22.1209 25.1871 18.6527 25.1759 18.3997C25.1357 17.5093 24.5558 17.107 24.0569 17.107C25.0108 16.8462 25.8401 15.9671 26.1703 15.4046C26.5518 14.7564 26.8417 13.7246 26.4637 12.7003C25.9134 11.2139 24.501 10.9681 23.5138 10.9495H29.6954Z" fill="#888888"/>
<path d="M0.0744829 7.3128H29.6923V0.0488281H0.0742188L0.0744829 7.3128Z" fill="#888888"/>
<path d="M133.422 20.6858V18.3763H134.541L134.501 14.3942L133.422 16.3459V11.4288L133.657 11.049H137.293L138.118 22.1385H134.541L134.523 20.6858H133.422ZM151.542 14.275C151.839 12.3417 150.896 10.7695 147.848 10.7695C145.115 10.7695 142.777 11.943 142.11 14.3161C140.929 18.5328 147.532 17.3815 147.081 19.0729C146.923 19.5905 146.256 19.8887 145.353 19.8887C144.997 19.8887 144.645 19.7881 144.407 19.6092C144.154 19.4119 144.036 19.1323 144.076 18.7339H140.635C140.143 20.7232 141.559 22.4367 144.447 22.4367C147.455 22.4367 149.913 21.1813 150.64 18.6144C151.759 14.5916 145.173 15.6085 145.647 13.9547C145.764 13.556 146.179 13.3175 146.964 13.3175C147.316 13.3175 147.613 13.377 147.829 13.5187C148.064 13.6565 148.182 13.8949 148.145 14.275H151.542ZM133.422 11.4288V16.3459L132.281 18.3763H133.422V20.6858H130.946L130.139 22.1385H126.837V21.7996L133.422 11.4288ZM126.837 14.4129C126.855 14.3534 126.877 14.2937 126.896 14.2155C127.13 13.3773 127.13 12.7028 126.837 12.2038V14.4129ZM126.837 12.2038V14.4129C126.444 15.6085 125.597 16.5846 124.302 16.9198C125.344 17.3593 125.953 17.6388 125.322 19.8662C124.929 21.3227 124.735 21.7996 125.168 21.7996L125.069 22.1385H121.744V20.4063C121.767 20.3469 121.785 20.265 121.807 20.2052C122.042 19.3299 122.1 18.812 121.744 18.5328V15.8469C122.669 15.7874 123.219 15.4893 123.417 14.7927C123.634 14.0141 123.142 13.6379 122.295 13.6379H121.744V11.049H122.926C125.146 11.049 126.364 11.4291 126.837 12.2038ZM126.837 21.7996L126.621 22.1385H126.837V21.7996ZM121.744 11.049V13.6379H120.626L120.017 15.8469H121.744V18.5328C121.51 18.3538 121.099 18.2757 120.427 18.2757H119.327L118.249 22.1385H114.653L117.775 11.049H121.744ZM121.744 20.4063C121.51 21.2819 121.411 21.9188 121.433 22.1385H121.744V20.4063ZM108.145 22.1161C110.621 21.9782 112.448 21.0619 113.097 18.7934C113.431 17.5977 113.079 16.5622 111.978 16.2643C112.804 15.8061 113.765 14.9903 114.081 13.8355C114.708 11.6451 112.903 11.049 110.445 11.049H108.145V13.6379H109.344C110.089 13.6379 110.797 13.6568 110.544 14.5134C110.364 15.1689 109.755 15.4893 109.051 15.4893H108.145V17.501C109.285 17.5196 110.089 17.5791 109.814 18.5328C109.601 19.3113 108.952 19.5311 108.145 19.5497V22.1161ZM108.145 11.049V13.6379H108.067L107.554 15.4895L108.145 15.4893V17.501L106.985 17.5007L106.417 19.5497H108.145V22.1161C107.91 22.1385 107.671 22.1385 107.436 22.1385H102.109L105.217 11.0493L108.145 11.049ZM95.3296 22.2577V19.5681C96.3898 19.151 97.0979 17.9962 97.5127 16.5435C97.9235 15.0311 97.7657 13.4368 96.1771 13.4778C95.88 13.4778 95.6047 13.5373 95.3296 13.6379V10.9482C95.8659 10.829 96.4132 10.7692 96.9622 10.7698C100.873 10.7698 101.915 13.6157 101.09 16.5435C100.224 19.6689 97.9454 21.6614 95.3296 22.2577ZM95.3296 10.9482V13.6379C94.2107 14.0958 93.5209 15.4074 93.2091 16.5435C92.8127 17.9554 92.7358 19.7284 94.4639 19.7284C94.7597 19.7295 95.0532 19.675 95.3296 19.5681V22.2577C94.7934 22.3771 94.2461 22.4371 93.6971 22.4367C90.2593 22.4367 88.5682 20.2871 89.6283 16.5024C90.4355 13.597 92.6588 11.5478 95.3296 10.9482ZM82.7495 22.1385V20.4063C82.7716 20.3469 82.7899 20.265 82.808 20.2052C83.0466 19.3299 83.1054 18.812 82.7495 18.5328V15.8469C83.6741 15.7874 84.2244 15.4893 84.4225 14.7927C84.6389 14.0141 84.1472 13.6379 83.2998 13.6379H82.7495V11.049H83.9491C87.5847 11.049 88.5096 12.066 87.9005 14.2153C87.5483 15.4893 86.6822 16.5622 85.3066 16.9198C86.3484 17.3593 86.9572 17.6388 86.3263 19.8662C85.9339 21.3227 85.7395 21.7996 86.1724 21.7996L86.0734 22.1385H82.7495ZM82.7495 11.049V13.6379H81.6305L81.0214 15.8469H82.7495V18.5328C82.5149 18.3538 82.1039 18.2757 81.4324 18.2757H80.3318L79.2714 22.1385H76.0871V20.6858L78.8018 11.049H82.7495ZM82.7495 20.4063C82.5147 21.2819 82.4156 21.9188 82.434 22.1385H82.7495V20.4063ZM76.0871 12.5242L76.5016 11.049H76.0871V12.5242ZM46.979 13.6379H46.9977C47.7644 13.6379 48.8868 13.7757 48.5897 14.8113C48.3549 15.709 47.7274 16.0442 46.979 16.1078V18.6742C49.7489 18.4955 51.4001 17.0428 52.0089 14.7927C52.6585 12.5242 51.5393 11.0488 48.3951 11.0488H46.979V13.6379ZM76.0871 11.049V12.5242L75.676 13.9768H72.4512L70.173 22.1385H66.5736L68.8738 13.9768H65.6527L66.4745 11.049H76.0871ZM76.0871 20.6858L75.676 22.1385H76.0871V20.6858ZM61.3091 22.1385H52.1668L55.2923 11.049H64.1964L63.4882 13.6379H58.1431L57.6919 15.2287H62.2117L61.4854 17.8175H56.9837L56.4922 19.5497H62.0357L61.3091 22.1385ZM45.2877 16.1078L45.9958 13.6379H46.979V11.0488L43.1267 11.049L40.0195 22.1385H43.5966L44.5798 18.6928H46.3883C46.5866 18.6928 46.7807 18.6928 46.979 18.6742V16.1078H45.2877Z" fill="#888888"/>
</g>
</g>
</g>
<defs>
<clipPath id="clip0_464_380">
<rect width="152" height="30" fill="white"/>
</clipPath>
<clipPath id="clip1_464_380">
<rect width="152" height="30" fill="white"/>
</clipPath>
</defs>
</svg>
