<svg width="100" height="43" viewBox="0 0 100 43" fill="none" xmlns="http://www.w3.org/2000/svg">
<g clip-path="url(#clip0_464_403)">
<g clip-path="url(#clip1_464_403)">
<path d="M53.0762 40.7587L55.2312 32.1367H58.0922C59.1472 32.1367 59.9402 32.3627 60.4722 32.8157C61.0032 33.2677 61.2692 33.9007 61.2692 34.7167C61.2692 35.0797 61.2002 35.4407 61.0622 35.8007C60.9242 36.1597 60.7172 36.4967 60.4422 36.8117C60.1662 37.1267 59.7842 37.3807 59.2972 37.5747C58.8102 37.7677 58.2542 37.8647 57.6292 37.8647H55.9132L55.1822 40.7587H53.0762ZM57.8612 33.8207H56.9232L56.3272 36.1817H57.5932C58.1122 36.1817 58.4932 36.0567 58.7372 35.8067C58.9812 35.5557 59.1022 35.2577 59.1022 34.9097C59.1022 34.1837 58.6892 33.8207 57.8612 33.8207ZM64.4892 34.4137C65.4312 34.4137 66.1592 34.6597 66.6742 35.1527C67.1902 35.6447 67.4472 36.3307 67.4472 37.2107C67.4472 37.6307 67.3682 38.0567 67.2102 38.4887C67.0502 38.9247 66.8202 39.3317 66.5282 39.6937C66.2322 40.0647 65.8412 40.3677 65.3542 40.6017C64.8672 40.8357 64.3272 40.9527 63.7352 40.9527C62.8012 40.9527 62.0792 40.7067 61.5682 40.2147C61.0562 39.7217 60.8012 39.0357 60.8012 38.1557C60.8012 37.7357 60.8802 37.3097 61.0382 36.8777C61.1982 36.4427 61.4292 36.0357 61.7202 35.6737C62.0162 35.3017 62.4052 34.9987 62.8882 34.7647C63.3712 34.5307 63.9052 34.4137 64.4892 34.4137ZM64.4042 35.9397C64.0712 35.9397 63.7852 36.0707 63.5462 36.3327C63.3122 36.5857 63.1392 36.8877 63.0412 37.2177C62.9432 37.5437 62.8942 37.8647 62.8942 38.1797C62.8942 39.0117 63.2112 39.4277 63.8442 39.4277C64.1692 39.4277 64.4532 39.2957 64.6962 39.0337C64.9332 38.7827 65.1082 38.4797 65.2082 38.1497C65.3052 37.8227 65.3542 37.5017 65.3542 37.1867C65.3542 36.3557 65.0372 35.9397 64.4042 35.9397ZM72.4332 34.4377C73.1072 34.4377 73.6282 34.6517 73.9972 35.0797C74.3672 35.5077 74.5512 36.1007 74.5512 36.8597C74.5512 37.4737 74.4252 38.0827 74.1742 38.6887C73.9222 39.2937 73.5292 39.8187 72.9932 40.2627C72.4572 40.7067 71.8402 40.9287 71.1422 40.9287C70.7942 40.9287 70.4832 40.8517 70.2112 40.6987C69.9452 40.5517 69.7332 40.3217 69.6092 40.0447H69.5842L68.8542 42.9997H66.8332L68.9392 34.6077H70.8872L70.7532 35.1407H70.7772C71.2642 34.6717 71.8162 34.4377 72.4332 34.4377ZM71.5562 35.9637C71.1022 35.9637 70.7352 36.2057 70.4552 36.6907C70.1752 37.1747 70.0352 37.6837 70.0352 38.2167C70.0352 38.5877 70.1082 38.8787 70.2542 39.0877C70.4002 39.2977 70.6112 39.4027 70.8872 39.4027C71.3412 39.4027 71.7082 39.1607 71.9892 38.6767C72.2682 38.1927 72.4092 37.6837 72.4092 37.1507C72.4092 36.7787 72.3362 36.4887 72.1892 36.2787C72.0432 36.0687 71.8322 35.9637 71.5562 35.9637ZM76.7732 40.9167C76.1722 40.9167 75.7082 40.7617 75.3792 40.4507C75.0512 40.1397 74.8862 39.6897 74.8862 39.1007C74.8862 38.8177 74.9272 38.5187 75.0082 38.2037L75.9092 34.6077H77.9302L77.0412 38.1437C76.9922 38.3617 76.9682 38.5477 76.9682 38.7007C76.9682 39.1367 77.1952 39.3547 77.6492 39.3547C77.9742 39.3547 78.2602 39.2237 78.5082 38.9607C78.7552 38.6987 78.9402 38.3087 79.0622 37.7927L79.8652 34.6077H81.8862L80.3402 40.7597H78.4652L78.6242 40.1177H78.5992C78.0472 40.6507 77.4392 40.9167 76.7732 40.9167ZM85.6302 32.1367L83.4752 40.7597H81.4542L83.6092 32.1367H85.6302ZM88.4722 34.4137C90.1602 34.4137 91.0052 35.0637 91.0052 36.3637C91.0052 36.6217 90.9682 36.8967 90.8952 37.1867L90.4322 39.0277C90.2462 39.7467 90.1602 40.3237 90.1772 40.7597H88.3872C88.3872 40.5257 88.4152 40.2957 88.4722 40.0687H88.4482C87.8562 40.6347 87.1662 40.9167 86.3782 40.9167C85.7862 40.9167 85.3302 40.7657 85.0092 40.4627C84.6882 40.1597 84.5282 39.7587 84.5282 39.2577C84.5282 38.9747 84.5872 38.7167 84.7042 38.4827C84.8222 38.2487 84.9662 38.0547 85.1372 37.9017C85.3072 37.7477 85.5302 37.6107 85.8062 37.4897C86.0572 37.3777 86.3162 37.2827 86.5792 37.2047C86.8192 37.1367 87.1072 37.0777 87.4442 37.0297C87.7172 36.9887 87.9912 36.9547 88.2652 36.9267C88.5162 36.9037 88.7682 36.8857 89.0202 36.8717L89.0442 36.7387C89.0852 36.5937 89.1052 36.4727 89.1052 36.3757C89.1052 35.9157 88.8542 35.6857 88.3512 35.6857C87.8072 35.6857 87.4742 35.9717 87.3522 36.5457H85.4172C85.5462 35.9317 85.8772 35.4227 86.4092 35.0197C86.9402 34.6157 87.6282 34.4137 88.4722 34.4137ZM88.6552 38.3257L88.7402 37.9737C88.4322 37.9817 88.0542 38.0267 87.6082 38.1067C86.9182 38.2197 86.5732 38.5147 86.5732 38.9917C86.5732 39.1767 86.6342 39.3227 86.7562 39.4277C86.8772 39.5327 87.0482 39.5847 87.2672 39.5847C87.9812 39.5847 88.4442 39.1657 88.6552 38.3257ZM96.2212 34.5107C96.4142 34.5087 96.6072 34.5327 96.7932 34.5837L96.3672 36.3027C96.1672 36.2647 95.9632 36.2447 95.7592 36.2427C95.2392 36.2427 94.8052 36.3977 94.4562 36.7087C94.1072 37.0197 93.8632 37.4697 93.7252 38.0587L93.0442 40.7597H91.0232L92.5572 34.6077H94.4312L94.2372 35.3707H94.2612C94.8372 34.7977 95.4912 34.5107 96.2212 34.5107Z" fill="#888888"/>
<path d="M34.9517 6.30273L31.6877 19.3187C31.5217 20.0197 31.4397 20.6067 31.4397 21.0807C31.4397 23.1007 32.4447 24.1107 34.4537 24.1107C36.7747 24.1107 38.2668 22.7397 38.9298 19.9987L42.3798 6.30273H47.7568L44.0577 21.0807C43.4367 23.5547 42.2557 25.4607 40.5147 26.8007C38.7747 28.1407 36.5987 28.8097 33.9887 28.8097C31.4607 28.8097 29.5127 28.1767 28.1447 26.9087C26.7777 25.6407 26.0938 23.8427 26.0938 21.5137C26.0938 20.5867 26.2287 19.5867 26.4977 18.5147L29.5747 6.30273H34.9517ZM56.4037 6.30273L51.9008 24.3827H55.3808L54.4037 28.3147H51.1397C49.0138 28.3147 46.9498 26.4487 46.9498 24.1467C46.9498 23.9237 46.9667 23.7047 47.0017 23.4907C47.0337 23.3237 50.9118 7.74073 51.2688 6.30273H56.4037ZM66.5187 9.39673L65.7117 12.6267H68.6957L67.7627 16.3637H64.7797L63.3808 21.9227C63.2778 22.3757 63.2257 22.7367 63.2257 23.0037C63.2257 23.5397 63.3658 23.9247 63.6448 24.1617C63.9248 24.3987 64.3647 24.5167 64.9657 24.5167C65.0907 24.5167 65.4007 24.4857 65.8988 24.4247L64.9037 28.3157C64.3437 28.4807 63.6707 28.5627 62.8838 28.5627C61.1437 28.5627 59.8688 28.2287 59.0608 27.5587C58.2528 26.8907 57.8487 25.8137 57.8487 24.3317C57.8487 23.6527 57.9727 22.8707 58.2217 21.9847L59.6208 16.3637H57.1648L58.0977 12.6267H60.5527L61.3587 9.39673H66.5187ZM97.1517 17.0927C97.1517 17.7517 97.0587 18.4527 96.8717 19.1947L95.6908 23.8947C95.2148 25.7287 94.9967 27.2027 95.0378 28.3147H90.4688C90.4688 27.7207 90.5417 27.1297 90.6867 26.5527H90.6247C89.1117 27.9957 87.3507 28.7177 85.3407 28.7177C83.8287 28.7177 82.6628 28.3307 81.8447 27.5577C81.0257 26.7847 80.6167 25.7597 80.6167 24.4817C80.6167 23.7597 80.7668 23.1007 81.0677 22.5027C81.3677 21.9047 81.7357 21.4107 82.1707 21.0187C82.6067 20.6277 83.1757 20.2767 83.8807 19.9677C84.5847 19.6587 85.2427 19.4167 85.8537 19.2417C86.4657 19.0657 87.2007 18.9167 88.0607 18.7927C88.9207 18.6687 89.6197 18.5817 90.1587 18.5297C90.6977 18.4787 91.3397 18.4327 92.0857 18.3917L92.1478 18.0507C92.2507 17.6797 92.3027 17.3707 92.3027 17.1237C92.3027 15.9487 91.6608 15.3617 90.3757 15.3617C88.9877 15.3617 88.1377 16.0927 87.8267 17.5567H82.8857C83.2168 15.9897 84.0617 14.6917 85.4187 13.6607C86.7757 12.6307 88.5317 12.1147 90.6867 12.1147C94.9967 12.1147 97.1517 13.7737 97.1517 17.0927ZM82.4517 12.5477L81.3637 16.9377C80.7837 16.8347 80.2647 16.7837 79.8097 16.7837C78.4827 16.7837 77.3747 17.1807 76.4837 17.9737C75.5928 18.7677 74.9717 19.9167 74.6187 21.4207L72.8787 28.3157H67.7188L71.6348 12.6097H76.4217L75.9248 14.5577H75.9867C77.4577 13.0937 79.1257 12.3627 80.9907 12.3627C81.5287 12.3627 82.0157 12.4247 82.4517 12.5477ZM88.4797 21.5447C86.7187 21.8337 85.8387 22.5857 85.8387 23.8017C85.8387 24.2757 85.9937 24.6467 86.3047 24.9147C86.6157 25.1827 87.0508 25.3157 87.6097 25.3157C89.4338 25.3157 90.6147 24.2447 91.1537 22.1017L91.3708 21.2047C90.5827 21.2257 89.6197 21.3387 88.4797 21.5447Z" fill="#888888"/>
<path d="M62.1172 6.489L63.7392 0H65.3792C66.3862 0 67.1482 0.237 67.6652 0.711C68.1802 1.185 68.4382 1.874 68.4382 2.78C68.4382 3.126 68.3912 3.471 68.2972 3.814C68.1972 4.168 68.0422 4.505 67.8382 4.812C67.6272 5.135 67.3682 5.424 67.0692 5.669C66.7672 5.918 66.3932 6.117 65.9472 6.266C65.5012 6.414 65.0092 6.489 64.4722 6.489H62.1172ZM65.3332 0.948H64.6002L63.4462 5.541H64.5272C65.0092 5.541 65.4372 5.457 65.8092 5.29C66.1822 5.123 66.4722 4.903 66.6802 4.63C66.8812 4.368 67.0392 4.075 67.1472 3.764C67.2492 3.468 67.3022 3.157 67.3022 2.843C67.3022 1.58 66.6462 0.948 65.3332 0.948ZM71.8022 1.795C71.9362 1.795 72.0652 1.811 72.1872 1.841L71.9582 2.761C71.8372 2.737 71.7142 2.724 71.5912 2.725C71.1762 2.725 70.8262 2.853 70.5422 3.108C70.2582 3.363 70.0552 3.733 69.9332 4.219L69.3652 6.489H68.3212L69.4752 1.859H70.4462L70.3002 2.479H70.3182C70.7572 2.023 71.2522 1.796 71.8022 1.796V1.795ZM74.1852 1.722C74.8202 1.722 75.3092 1.897 75.6512 2.247C75.9932 2.596 76.1642 3.086 76.1642 3.718C76.1642 4.046 76.1062 4.378 75.9902 4.712C75.8742 5.046 75.7072 5.361 75.4952 5.646C75.2812 5.934 74.9982 6.17 74.6432 6.352C74.2892 6.534 73.9012 6.625 73.4802 6.625C72.8512 6.625 72.3682 6.451 72.0322 6.101C71.6962 5.752 71.5292 5.262 71.5292 4.63C71.5292 4.301 71.5862 3.97 71.7022 3.636C71.8182 3.302 71.9832 2.988 72.1932 2.702C72.4032 2.414 72.6832 2.178 73.0312 1.996C73.3792 1.814 73.7642 1.722 74.1852 1.722ZM74.1122 2.543C73.7882 2.543 73.5052 2.663 73.2642 2.903C73.0232 3.143 72.8522 3.415 72.7512 3.718C72.6522 4.012 72.6012 4.32 72.6002 4.63C72.6002 5.006 72.6832 5.296 72.8472 5.5C73.0122 5.703 73.2542 5.805 73.5712 5.805C73.8952 5.805 74.1762 5.685 74.4142 5.445C74.6462 5.215 74.8222 4.934 74.9272 4.625C75.0282 4.333 75.0812 4.027 75.0832 3.718C75.0832 3.341 75.0002 3.051 74.8362 2.848C74.6712 2.644 74.4292 2.543 74.1122 2.543ZM78.9692 1.731C79.3042 1.731 79.5822 1.811 79.8022 1.968C80.0222 2.127 80.1812 2.342 80.2782 2.616H80.2972L80.4892 1.859H81.4792L80.3342 6.462C80.1872 7.051 79.9012 7.496 79.4772 7.796C79.0532 8.097 78.5322 8.248 77.9152 8.248C77.3232 8.248 76.8742 8.143 76.5682 7.933C76.2632 7.723 76.1102 7.424 76.1102 7.036C76.1102 6.957 76.1192 6.871 76.1382 6.78H77.1552C77.1492 6.817 77.1452 6.868 77.1452 6.935C77.1452 7.3 77.4202 7.482 77.9702 7.482C78.6912 7.482 79.1552 7.075 79.3622 6.261L79.4542 5.887H79.4362C79.0512 6.252 78.6022 6.434 78.0892 6.434C77.6072 6.434 77.2322 6.273 76.9672 5.951C76.7012 5.629 76.5682 5.182 76.5682 4.611C76.5682 4.18 76.6572 3.75 76.8342 3.322C77.0112 2.894 77.2892 2.521 77.6682 2.206C78.0462 1.889 78.4802 1.732 78.9682 1.732L78.9692 1.731ZM79.0512 2.597C78.6362 2.597 78.3012 2.804 78.0482 3.217C77.7942 3.63 77.6682 4.049 77.6682 4.475C77.6682 4.821 77.7412 5.091 77.8872 5.286C78.0342 5.48 78.2422 5.577 78.5112 5.577C78.8102 5.577 79.0752 5.472 79.3072 5.263C79.5332 5.063 79.7062 4.811 79.8112 4.529C79.9152 4.25 79.9672 3.973 79.9672 3.7C79.9672 3.354 79.8882 3.083 79.7292 2.889C79.5702 2.695 79.3442 2.597 79.0512 2.597ZM84.0542 1.722C85.1842 1.722 85.7492 2.193 85.7492 3.135C85.7472 3.341 85.7192 3.546 85.6672 3.746L85.2912 5.267C85.1632 5.778 85.0992 6.185 85.0992 6.489H84.1732C84.1732 6.307 84.2012 6.118 84.2562 5.924H84.2372C83.8102 6.367 83.2792 6.589 82.6432 6.589C82.1982 6.589 81.8522 6.479 81.6082 6.261C81.3642 6.042 81.2422 5.751 81.2422 5.386C81.2422 5.173 81.2872 4.979 81.3792 4.803C81.4622 4.638 81.5762 4.489 81.7142 4.365C81.8452 4.25 82.0172 4.146 82.2312 4.055C82.4232 3.972 82.6202 3.902 82.8222 3.846C83.0402 3.79 83.2622 3.749 83.4862 3.723C83.7492 3.689 83.9582 3.667 84.1142 3.654C84.2702 3.642 84.4602 3.63 84.6862 3.618L84.7142 3.508C84.7512 3.381 84.7692 3.262 84.7692 3.153C84.7692 2.704 84.5062 2.479 83.9812 2.479C83.7122 2.479 83.4862 2.552 83.3032 2.698C83.1202 2.843 83.0042 3.041 82.9552 3.29H81.9192C82.0172 2.834 82.2562 2.459 82.6342 2.165C83.0132 1.87 83.4862 1.722 84.0542 1.722ZM84.4392 4.639L84.5222 4.292C84.1512 4.313 83.7812 4.35 83.4132 4.402C83.0102 4.463 82.7292 4.566 82.5702 4.712C82.4162 4.848 82.3292 5.044 82.3322 5.249C82.3322 5.431 82.3932 5.573 82.5152 5.673C82.6382 5.773 82.8112 5.823 83.0372 5.823C83.3862 5.823 83.6802 5.72 83.9212 5.513C84.1632 5.307 84.3352 5.015 84.4392 4.639ZM89.4062 1.795C89.5402 1.795 89.6692 1.811 89.7912 1.841L89.5612 2.761C89.4412 2.737 89.3182 2.724 89.1952 2.725C88.7802 2.725 88.4302 2.853 88.1462 3.108C87.8622 3.363 87.6592 3.733 87.5372 4.219L86.9692 6.489H85.9242L87.0792 1.859H88.0502L87.9032 2.479H87.9222C88.3612 2.023 88.8562 1.796 89.4062 1.796V1.795ZM91.2392 1.859L90.0852 6.489H89.0402L90.1952 1.859H91.2392ZM91.7062 0L91.4592 0.993H90.4152L90.6622 0H91.7062ZM93.8152 1.722C94.9452 1.722 95.5102 2.193 95.5102 3.135C95.5072 3.341 95.4802 3.546 95.4272 3.746L95.0522 5.267C94.9232 5.778 94.8592 6.185 94.8592 6.489H93.9342C93.9342 6.307 93.9612 6.118 94.0162 5.924H93.9982C93.5712 6.367 93.0392 6.589 92.4042 6.589C91.9582 6.589 91.6132 6.479 91.3692 6.261C91.1252 6.042 91.0022 5.751 91.0022 5.386C91.0022 5.173 91.0482 4.979 91.1402 4.803C91.2232 4.638 91.3362 4.489 91.4742 4.365C91.6052 4.25 91.7782 4.146 91.9922 4.055C92.1832 3.972 92.3812 3.902 92.5822 3.846C92.8012 3.79 93.0232 3.749 93.2472 3.723C93.5102 3.689 93.7192 3.667 93.8742 3.654C94.0652 3.64 94.2562 3.628 94.4472 3.618L94.4742 3.508C94.5112 3.381 94.5292 3.262 94.5292 3.153C94.5292 2.704 94.2672 2.479 93.7412 2.479C93.4732 2.479 93.2472 2.552 93.0632 2.698C92.8802 2.843 92.7642 3.041 92.7152 3.29H91.6802C91.7782 2.834 92.0162 2.459 92.3952 2.165C92.7732 1.87 93.2472 1.722 93.8152 1.722ZM94.2002 4.639L94.2822 4.292C93.9112 4.313 93.5412 4.35 93.1742 4.402C92.7702 4.463 92.4902 4.566 92.3312 4.712C92.1762 4.848 92.0892 5.044 92.0922 5.249C92.0922 5.431 92.1542 5.573 92.2762 5.673C92.3982 5.773 92.5722 5.823 92.7982 5.823C93.1462 5.823 93.4412 5.72 93.6822 5.513C93.9232 5.307 94.0962 5.015 94.2002 4.639ZM98.3052 1.722C98.8542 1.722 99.2752 1.829 99.5652 2.041C99.8552 2.254 100 2.564 100 2.971C100 3.086 99.9882 3.196 99.9632 3.299H98.9652C98.9652 3.293 98.9692 3.259 98.9782 3.199C98.9872 3.138 98.9922 3.092 98.9922 3.062C98.9922 2.673 98.7322 2.479 98.2132 2.479C97.9452 2.479 97.7392 2.534 97.5952 2.643C97.4522 2.752 97.3802 2.892 97.3802 3.062C97.3802 3.22 97.4412 3.34 97.5632 3.422C97.6852 3.504 97.9202 3.603 98.2682 3.718C98.4952 3.791 98.6642 3.852 98.7772 3.9C98.8902 3.949 99.0262 4.027 99.1852 4.133C99.3432 4.239 99.4582 4.371 99.5282 4.529C99.5982 4.687 99.6332 4.876 99.6332 5.094C99.6332 5.507 99.4502 5.866 99.0842 6.17C98.7172 6.473 98.1982 6.625 97.5262 6.625C96.9402 6.625 96.4882 6.514 96.1702 6.293C95.8532 6.071 95.6942 5.747 95.6942 5.322C95.6942 5.182 95.7092 5.064 95.7402 4.967H96.7932C96.7692 5.088 96.7572 5.173 96.7572 5.222C96.7572 5.641 97.0442 5.851 97.6182 5.851C97.9052 5.851 98.1302 5.793 98.2912 5.677C98.4532 5.562 98.5342 5.407 98.5342 5.213C98.5342 5.031 98.4622 4.892 98.3192 4.798C98.1752 4.704 97.9202 4.596 97.5542 4.475L97.2882 4.379C97.2082 4.349 97.1292 4.317 97.0502 4.283C96.9342 4.235 96.8532 4.194 96.8072 4.16C96.7422 4.111 96.6802 4.06 96.6192 4.005C96.5402 3.935 96.4852 3.866 96.4542 3.796C96.4192 3.71 96.3902 3.622 96.3682 3.531C96.3392 3.42 96.3262 3.305 96.3262 3.19C96.3262 2.795 96.5002 2.452 96.8482 2.16C97.1962 1.868 97.6822 1.722 98.3052 1.722Z" fill="#888888"/>
<path d="M9.40539 12.6068H17.3094L18.8114 6.42383H10.9074L9.40539 12.6068ZM6.40039 24.9728H14.3054L15.8074 18.7898H7.90339L6.40039 24.9728ZM15.8074 18.7898L23.7114 18.7908L25.2144 12.6068H17.3094L15.8074 18.7898Z" fill="#888888"/>
<path d="M1.502 12.6172H9.407L7.904 18.8002H0L1.502 12.6172Z" fill="#888888"/>
</g>
</g>
<defs>
<clipPath id="clip0_464_403">
<rect width="100" height="43" fill="white"/>
</clipPath>
<clipPath id="clip1_464_403">
<rect width="100" height="43" fill="white"/>
</clipPath>
</defs>
</svg>
