<svg width="32" height="32" viewBox="0 0 32 32" fill="none" xmlns="http://www.w3.org/2000/svg">
<g clip-path="url(#clip0_464_370)">
<g clip-path="url(#clip1_464_370)">
<path d="M16 30.115C8.285 30.115 1.943 23.715 1.943 16C1.943 14.4 2.228 12.857 2.743 11.372L10.972 27.372C11.085 27.6 11.2 27.772 11.485 27.772C11.772 27.772 11.885 27.6 12 27.372L15.828 18.857C15.885 18.743 15.942 18.685 16 18.685C16.115 18.685 16.115 18.8 16.172 18.857L20.057 27.372C20.172 27.6 20.285 27.772 20.572 27.772C20.857 27.772 20.972 27.6 21.085 27.372L29.315 11.372C29.828 12.8 30.115 14.343 30.115 16C30.057 23.715 23.715 30.115 16 30.115ZM16 12.343C15.885 12.343 15.885 12.228 15.828 12.172L11.428 2.685C14.383 1.621 17.617 1.621 20.572 2.685L16.172 12.172C16.115 12.228 16.115 12.343 16 12.343ZM11.372 22.628C11.257 22.628 11.257 22.515 11.2 22.457L4 8.627C5.257 6.571 7.085 4.856 9.2 3.656L14.285 14.627C14.4 14.856 14.515 14.913 14.685 14.913H17.315C17.485 14.913 17.6 14.856 17.715 14.627L22.743 3.656C24.857 4.856 26.685 6.571 27.943 8.627L20.8 22.457C20.742 22.571 20.685 22.628 20.628 22.628C20.515 22.628 20.515 22.515 20.457 22.457L17.715 16.4C17.6 16.172 17.485 16.115 17.315 16.115H14.685C14.515 16.115 14.4 16.172 14.285 16.4L11.543 22.457C11.485 22.515 11.485 22.628 11.372 22.628ZM16 32C24.857 32 32 24.857 32 16C32 7.143 24.857 0 16 0C7.143 0 0 7.143 0 16C0 24.857 7.143 32 16 32Z" fill="#888888"/>
</g>
</g>
<defs>
<clipPath id="clip0_464_370">
<rect width="32" height="32" fill="white"/>
</clipPath>
<clipPath id="clip1_464_370">
<rect width="32" height="32" fill="white"/>
</clipPath>
</defs>
</svg>
